<svg width="52" height="52" viewBox="0 0 52 52" fill="none" xmlns="http://www.w3.org/2000/svg">
<path d="M45.7896 23.5486L42.9525 20.712C42.2791 20.0386 41.7274 18.708 41.7274 17.7538V13.742C41.7274 11.8336 40.1684 10.2746 38.2606 10.2736H34.2472C33.294 10.2736 31.9618 9.7208 31.2884 9.04792L28.4518 6.21132C27.104 4.86348 24.8971 4.86348 23.5492 6.21132L20.7126 9.05C20.0387 9.7234 18.7049 10.2746 17.7538 10.2746H13.742C11.8362 10.2746 10.2752 11.8336 10.2752 13.742V17.7538C10.2752 18.7043 9.72347 20.0392 9.05007 20.712L6.21295 23.5486C4.86407 24.8965 4.86407 27.1034 6.21295 28.4533L9.05007 31.2899C9.72399 31.9633 10.2752 33.2976 10.2752 34.2482V38.26C10.2752 40.1663 11.8362 41.7273 13.742 41.7273H17.7538C18.707 41.7273 20.0392 42.279 20.7126 42.9519L23.5492 45.7896C24.8971 47.1364 27.104 47.1364 28.4518 45.7896L31.2884 42.9519C31.9623 42.2785 33.294 41.7273 34.2472 41.7273H38.2606C40.1684 41.7273 41.7274 40.1663 41.7274 38.26V34.2482C41.7274 33.2934 42.2796 31.9628 42.9525 31.2899L45.7896 28.4533C47.1364 27.1034 47.1364 24.8965 45.7896 23.5486ZM23.2487 33.8004L15.6 26.1507L18.0513 23.7L23.2492 28.8979L33.9492 18.2004L36.4 20.6512L23.2487 33.8004Z" fill="#C00000"/>
</svg>
